<?xml version="1.0" encoding="UTF-8" standalone="no"?>
<!-- Created with Inkscape (http://www.inkscape.org/) -->

<svg
   width="209.97162mm"
   height="145.71446mm"
   viewBox="0 0 209.97162 145.71446"
   version="1.1"
   id="svg12964"
   xml:space="preserve"
   inkscape:export-filename="logo-lower.svg"
   inkscape:export-xdpi="96"
   inkscape:export-ydpi="96"
   sodipodi:docname="logo-lower.svg"
   inkscape:version="1.2 (dc2aeda, 2022-05-15)"
   xmlns:inkscape="http://www.inkscape.org/namespaces/inkscape"
   xmlns:sodipodi="http://sodipodi.sourceforge.net/DTD/sodipodi-0.dtd"
   xmlns:xlink="http://www.w3.org/1999/xlink"
   xmlns="http://www.w3.org/2000/svg"
   xmlns:svg="http://www.w3.org/2000/svg"><sodipodi:namedview
     id="namedview12966"
     pagecolor="#ffffff"
     bordercolor="#000000"
     borderopacity="0.25"
     inkscape:showpageshadow="2"
     inkscape:pageopacity="0.0"
     inkscape:pagecheckerboard="0"
     inkscape:deskcolor="#d1d1d1"
     inkscape:document-units="mm"
     showgrid="true"
     inkscape:zoom="0.85724891"
     inkscape:cx="419.36478"
     inkscape:cy="352.87301"
     inkscape:window-width="1680"
     inkscape:window-height="997"
     inkscape:window-x="0"
     inkscape:window-y="25"
     inkscape:window-maximized="1"
     inkscape:current-layer="layer1" /><defs
     id="defs12961"><linearGradient
       inkscape:collect="always"
       id="linearGradient41799"><stop
         style="stop-color:#ffffff;stop-opacity:1;"
         offset="0"
         id="stop41795" /><stop
         style="stop-color:#ffffff;stop-opacity:0;"
         offset="1"
         id="stop41797" /></linearGradient><inkscape:perspective
       sodipodi:type="inkscape:persp3d"
       inkscape:vp_x="0 : 72.85723 : 1"
       inkscape:vp_y="0 : 1000 : 0"
       inkscape:vp_z="209.97162 : 72.85723 : 1"
       inkscape:persp3d-origin="104.98581 : 48.571487 : 1"
       id="perspective38446" /><linearGradient
       inkscape:collect="always"
       id="linearGradient32694"><stop
         style="stop-color:#e9d5ca;stop-opacity:1;"
         offset="0"
         id="stop32690" /><stop
         style="stop-color:#ffffff;stop-opacity:0;"
         offset="1"
         id="stop32692" /></linearGradient><linearGradient
       inkscape:collect="always"
       xlink:href="#linearGradient32694"
       id="linearGradient32696"
       x1="40.939068"
       y1="20.8929"
       x2="185.9726"
       y2="157.05324"
       gradientUnits="userSpaceOnUse"
       gradientTransform="translate(-216.78678,-153.82775)" /><linearGradient
       inkscape:collect="always"
       xlink:href="#linearGradient41799"
       id="linearGradient41792"
       gradientUnits="userSpaceOnUse"
       gradientTransform="translate(-217.02533,-154.78687)"
       x1="296.18631"
       y1="-48.551624"
       x2="110.04658"
       y2="141.62111" /></defs><g
     inkscape:label="Layer 1"
     inkscape:groupmode="layer"
     id="layer1"
     transform="translate(-3.2453155,-3.8943785)"><g
       id="path14413-6"
       transform="matrix(1.1566584,0,0,1.1304389,-90.424015,-30.846275)"><path
         style="color:#000000;fill:#363062;fill-rule:evenodd;stroke-width:1.055;-inkscape-stroke:none"
         d="m 94.196494,102.12109 v 4.57503 c 3.966197,6.42904 21.935076,5.38531 24.236736,-0.0817 v -4.57503 c -6.27159,5.6668 -19.402611,3.71445 -24.236736,0.0817 z"
         id="path14417-8"
         sodipodi:nodetypes="ccccc" /><path
         style="color:#000000;fill:none;fill-rule:evenodd;-inkscape-stroke:none"
         d="m 118.96094,100.92383 -2.78711,2.28906 -2.54883,1.01563 -2.59961,0.52929 -3.83008,0.42969 -2.64258,-0.10742 -2.68359,-0.24024 -2.447265,-0.49023 -1.978516,-0.71094 -1.455078,-0.73437 -2.318359,-1.89649 v 1.11328 4.91211 l 8.668128,4.35547 6.24789,0.0566 4.00781,-0.61328 3.55859,-1.18555 2.23829,-1.73828 0.57031,-1.17187 z m -1.05469,2.23047 v 3.33789 l -0.35742,0.73437 -1.90039,1.47657 -3.30274,1.0996 -3.83593,0.58594 -5.20704,-0.0527 -8.578121,-3.97656 v -3.125 l 0.685547,0.56054 1.615235,0.81446 2.113281,0.75976 2.580078,0.51563 2.76367,0.24804 2.75,0.11133 3.95703,-0.44336 2.73828,-0.55859 2.78907,-1.10938 z"
         id="path14434-9"
         sodipodi:nodetypes="ccccccccccccccccccccccccccccccccccccccc" /></g><g
       id="path14413-6-1"
       transform="matrix(1.1566584,0,0,1.1304389,-90.550954,-22.719942)"><path
         style="color:#000000;fill:#363062;fill-rule:evenodd;stroke-width:1.055;-inkscape-stroke:none"
         d="m 94.196494,102.12109 v 4.57503 c 4.386206,5.81812 21.285966,5.34713 24.236736,-0.0817 v -4.57503 c -6.27159,5.6668 -19.402611,3.71445 -24.236736,0.0817 z"
         id="path14417-8-4"
         sodipodi:nodetypes="ccccc" /><path
         style="color:#000000;fill:none;fill-rule:evenodd;-inkscape-stroke:none"
         d="m 118.96094,100.92383 -2.78711,2.28906 -2.54883,1.01563 -2.59961,0.52929 -3.83008,0.42969 -2.64258,-0.10742 -2.68359,-0.24024 -2.447265,-0.49023 -1.978516,-0.71094 -1.455078,-0.73437 -2.318359,-1.89649 v 1.11328 4.91211 l 8.668128,4.35547 6.24789,0.0566 4.00781,-0.61328 3.55859,-1.18555 2.23829,-1.73828 0.57031,-1.17187 z m -1.05469,2.23047 v 3.33789 l -0.35742,0.73437 -1.90039,1.47657 -3.30274,1.0996 -3.83593,0.58594 -5.20704,-0.0527 -8.578121,-3.97656 v -3.125 l 0.685547,0.56054 1.615235,0.81446 2.113281,0.75976 2.580078,0.51563 2.76367,0.24804 2.75,0.11133 3.95703,-0.44336 2.73828,-0.55859 2.78907,-1.10938 z"
         id="path14434-9-8"
         sodipodi:nodetypes="ccccccccccccccccccccccccccccccccccccccc"
         inkscape:label="path14434-9-8" /></g><g
       id="path14413"
       transform="matrix(1.1566584,0,0,1.1304389,-90.518294,-38.96104)"><path
         style="color:#000000;fill:#363062;fill-rule:evenodd;stroke-width:1.055;-inkscape-stroke:none"
         d="m 94.196494,102.12109 v 4.57503 c 3.966197,6.42904 21.935076,5.38531 24.236736,-0.0817 v -4.57503 c -6.27159,5.6668 -19.402611,3.71445 -24.236736,0.0817 z"
         id="path14417"
         sodipodi:nodetypes="ccccc" /><path
         style="color:#000000;fill:none;fill-rule:evenodd;-inkscape-stroke:none"
         d="m 118.96094,100.92383 -2.78711,2.28906 -2.54883,1.01563 -2.59961,0.52929 -3.83008,0.42969 -2.64258,-0.10742 -2.68359,-0.24024 -2.447265,-0.49023 -1.978516,-0.71094 -1.455078,-0.73437 -2.318359,-1.89649 v 1.11328 4.91211 l 8.668128,4.35547 6.24789,0.0566 4.00781,-0.61328 3.55859,-1.18555 2.23829,-1.73828 0.57031,-1.17187 z m -1.05469,2.23047 v 3.33789 l -0.35742,0.73437 -1.90039,1.47657 -3.30274,1.0996 -3.83593,0.58594 -5.20704,-0.0527 -8.578121,-3.97656 v -3.125 l 0.685547,0.56054 1.615235,0.81446 2.113281,0.75976 2.580078,0.51563 2.76367,0.24804 2.75,0.11133 3.95703,-0.44336 2.73828,-0.55859 2.78907,-1.10938 z"
         id="path14434"
         sodipodi:nodetypes="ccccccccccccccccccccccccccccccccccccccc" /><g
         inkscape:groupmode="layer"
         id="layer2"
         inkscape:label="database"
         transform="matrix(0.8645595,0,0,0.88461217,78.25845,34.46541)"><ellipse
           style="fill:#4d4c7d;fill-opacity:1;fill-rule:evenodd;stroke:#4d4c7d;stroke-width:1.28497;stroke-opacity:1"
           id="path13268"
           cx="32.468304"
           cy="72.940094"
           rx="13.422471"
           ry="4.7545466" /></g></g><rect
       style="display:inline;fill:#363062;fill-opacity:1;fill-rule:evenodd;stroke:#363062;stroke-width:1.20636;stroke-linejoin:round"
       id="rect16891"
       width="3.1341782"
       height="49.010101"
       x="112.28788"
       y="27.409622" /><rect
       style="display:inline;fill:#363062;fill-opacity:1;fill-rule:evenodd;stroke:#363062;stroke-width:1.35529;stroke-linejoin:round"
       id="rect16891-7"
       width="2.9159014"
       height="66.488258"
       x="-76.346115"
       y="112.45538"
       transform="rotate(-90)" /><rect
       style="display:inline;fill:#363062;fill-opacity:1;fill-rule:evenodd;stroke:#363062;stroke-width:1.32564;stroke-linecap:round;stroke-linejoin:round"
       id="rect16891-7-5"
       width="4.9126992"
       height="37.755486"
       x="144.39816"
       y="31.284111" /><rect
       style="display:inline;fill:#4d4c7d;fill-opacity:1;fill-rule:evenodd;stroke:#4d4c7d;stroke-width:0.788149;stroke-opacity:1"
       id="rect16891-7-5-4"
       width="5.456388"
       height="12.016018"
       x="155.95595"
       y="57.400291" /><rect
       style="display:inline;fill:#293462;fill-opacity:1;fill-rule:evenodd;stroke:#293462;stroke-width:1.084;stroke-opacity:1;stroke-linejoin:round;stroke-linecap:round"
       id="rect16891-7-5-4-7"
       width="5.157124"
       height="24.049236"
       x="167.70457"
       y="45.130867" /><rect
       style="display:inline;fill:#827397;fill-opacity:1;fill-rule:evenodd;stroke:#827397;stroke-width:1.12053;stroke-opacity:1;stroke-linejoin:round"
       id="rect16891-7-5-0"
       width="5.1201777"
       height="25.882626"
       x="131.94981"
       y="43.44397" /><rect
       style="display:inline;fill:#e9d5ca;fill-opacity:1;fill-rule:evenodd;stroke:#e9d5ca;stroke-width:0.963405;stroke-linejoin:round;stroke-opacity:1"
       id="rect16891-7-5-0-6"
       width="5.2791104"
       height="18.55695"
       x="119.79353"
       y="50.753166"
       ry="0" /><path
       style="display:inline;fill:none;fill-opacity:1;fill-rule:evenodd;stroke:#363062;stroke-width:1.29212;stroke-linecap:round;stroke-linejoin:round;stroke-dasharray:none;stroke-opacity:1;paint-order:normal"
       d="m 94.402615,95.586554 c -30.63092,3.8327 -22.60102,40.911816 -1.016,40.711696 14.388955,0.7982 22.018445,-13.5395 20.827985,-20.19035 l -19.981315,-0.21353 z"
       id="path28237"
       sodipodi:nodetypes="ccccc" /><path
       style="display:inline;fill:none;fill-opacity:1;fill-rule:evenodd;stroke:#827397;stroke-width:1.29212;stroke-linecap:round;stroke-linejoin:round;stroke-dasharray:none;stroke-opacity:1;paint-order:normal"
       d="M 99.963732,110.18398 V 90.06239 c 12.986328,0.43542 19.597438,8.180494 19.811398,20.12159 z"
       id="path28253"
       sodipodi:nodetypes="cccc" /><path
       style="display:inline;fill:#ffffff;fill-opacity:1;fill-rule:evenodd;stroke:#827397;stroke-width:1.39567;stroke-linecap:round;stroke-linejoin:round;stroke-dasharray:none;stroke-opacity:1;paint-order:normal"
       d="m 100.05794,100.41302 8.39841,-8.38207"
       id="path28256" /><path
       style="fill:#ffffff;fill-opacity:1;fill-rule:evenodd;stroke:#827397;stroke-width:1.29212;stroke-linecap:round;stroke-linejoin:round;stroke-dasharray:none;stroke-opacity:1;paint-order:normal"
       d="M 100.01834,110.12651 114.268,96.069714"
       id="path28258" /><path
       style="fill:#ffffff;fill-opacity:1;fill-rule:evenodd;stroke:#827397;stroke-width:1.29212;stroke-linecap:round;stroke-linejoin:round;stroke-dasharray:none;stroke-opacity:1;paint-order:normal"
       d="m 109.6069,110.21328 8.3456,-8.11302"
       id="path28260" /><path
       style="fill:none;fill-opacity:1;fill-rule:evenodd;stroke:#363062;stroke-width:1.13;stroke-linecap:round;stroke-linejoin:round;stroke-dasharray:none;stroke-opacity:1;paint-order:normal"
       d="m 38.874709,61.271693 17.668174,-21.55517 3.533634,9.894179 13.781179,-21.555173 6.36054,23.321989 19.788354,-29.329168"
       id="path31816" /><path
       style="fill:none;fill-opacity:1;fill-rule:evenodd;stroke:#363062;stroke-width:1.13;stroke-linecap:round;stroke-linejoin:round;stroke-dasharray:none;stroke-opacity:1;paint-order:normal"
       d="m 93.627686,23.043821 6.607954,-1.770595 1.64395,6.135352"
       id="path31818" /><ellipse
       style="fill:none;fill-opacity:1;fill-rule:evenodd;stroke:none;stroke-width:1.13;stroke-linecap:round;stroke-linejoin:round;stroke-dasharray:none;stroke-opacity:1;paint-order:normal"
       id="path31820"
       cx="110.01604"
       cy="80.808243"
       rx="103.2009"
       ry="68.800598" /><rect
       style="fill:url(#linearGradient32696);fill-opacity:1;fill-rule:evenodd;stroke:none;stroke-width:1.13;stroke-linecap:round;stroke-linejoin:round;stroke-dasharray:none;stroke-opacity:1;paint-order:normal"
       id="rect32688"
       width="185.01697"
       height="140.98317"
       x="-188.26228"
       y="-144.87755"
       rx="2.7124481"
       ry="2.7124481"
       transform="scale(-1)" /><rect
       style="fill:url(#linearGradient41792);fill-opacity:1;fill-rule:evenodd;stroke:none;stroke-width:1.13;stroke-linecap:round;stroke-linejoin:round;stroke-dasharray:none;stroke-opacity:1;paint-order:normal"
       id="rect32688-5"
       width="192.42438"
       height="142.21774"
       x="-188.50082"
       y="-145.83667"
       rx="2.7124481"
       ry="2.7124481"
       transform="scale(-1)" /></g></svg>
